<?xml version="1.0" encoding="utf-8"?>
<!-- Generator: Adobe Illustrator 20.0.0, SVG Export Plug-In . SVG Version: 6.00 Build 0)  -->
<svg version="1.1" id="Layer_1" xmlns="http://www.w3.org/2000/svg" xmlns:xlink="http://www.w3.org/1999/xlink" x="0px" y="0px"
	 viewBox="0 0 93.8 94.8" style="enable-background:new 0 0 93.8 94.8;" xml:space="preserve">
<style type="text/css">
	.st0{fill:#0073B9;}
	.st1{fill:#FFFFFF;}
	.st2{fill:#0070B7;}
	.st3{font-family:'Helvetica-BoldOblique';}
	.st4{font-size:11.3939px;}
</style>
<g>
	<rect class="st0" width="93.8" height="94.8"/>
	<g>
		<g>
			<path class="st1" d="M56.7,14.2L48,27.1c-1.7,2.6-5.7,1.9-6.5-1.1l-2.8-10.7c-0.4-1.6-1.9-2.7-3.5-2.7h-16
				c-2.5,0-4.2,2.4-3.4,4.8l12.6,36.9c0.2,0.6,0.3,1.3,0.1,1.9L24,77.7c-0.5,2.2,1.2,4.4,3.5,4.4h13.6c1.7,0,3.2-1.2,3.5-2.9
				l4.6-21.7c0.1-0.5,0.3-1,0.6-1.4l28.2-37.6c1.8-2.4,0.1-5.8-2.9-5.8H59.7C58.5,12.6,57.3,13.2,56.7,14.2z"/>
			<path class="st1" d="M59.5,12.6h15.4c3,0,4.7,3.4,2.9,5.8L49.6,55.9c-0.3,0.4-0.5,0.9-0.6,1.4L44.4,79c-0.4,1.7-1.8,2.9-3.5,2.9
				H27.4c-2.3,0-4-2.1-3.5-4.3l4.5-21.5c0.1-0.6,0.1-1.3-0.1-1.9L15.7,17.4c-0.8-2.3,0.9-4.8,3.4-4.8h15.8c1.6,0,3.1,1.1,3.5,2.7
				l2.9,10.9c0.8,3,4.7,3.7,6.5,1.1l8.7-13C57.2,13.2,58.3,12.6,59.5,12.6z"/>
			<path class="st1" d="M59.3,12.6h15.2c3,0,4.6,3.4,2.9,5.7l-28,37.4c-0.3,0.4-0.5,0.9-0.6,1.4l-4.6,21.7c-0.4,1.7-1.8,2.8-3.5,2.8
				H27.2c-2.3,0-4-2.1-3.5-4.3L28.3,56c0.1-0.6,0.1-1.3-0.1-1.9L15.6,17.4c-0.8-2.3,0.9-4.7,3.4-4.7h15.7c1.6,0,3.1,1.1,3.5,2.7
				l2.9,11c0.8,3,4.7,3.6,6.4,1.1l8.8-13.2C57,13.2,58.1,12.6,59.3,12.6z"/>
			<path class="st1" d="M59.1,12.6h15c2.9,0,4.6,3.4,2.9,5.7l-28,37.4c-0.3,0.4-0.5,0.9-0.6,1.4l-4.6,21.7c-0.3,1.7-1.8,2.8-3.5,2.8
				H27.1c-2.3,0-4-2.1-3.5-4.3l4.5-21.4c0.1-0.6,0.1-1.3-0.1-1.9L15.5,17.4c-0.8-2.3,0.9-4.7,3.4-4.7h15.6c1.6,0,3,1.1,3.5,2.7
				l2.9,11.2c0.8,3,4.7,3.6,6.4,1.1l8.9-13.3C56.8,13.2,57.9,12.6,59.1,12.6z"/>
			<path class="st1" d="M59,12.6h14.9c2.9,0,4.6,3.3,2.8,5.7L48.8,55.6c-0.3,0.4-0.5,0.9-0.6,1.4l-4.6,21.6
				c-0.3,1.6-1.8,2.8-3.5,2.8H27c-2.3,0-3.9-2.1-3.5-4.3L28,55.9c0.1-0.6,0.1-1.3-0.1-1.9L15.4,17.3c-0.8-2.3,0.9-4.7,3.4-4.7h15.4
				c1.6,0,3,1.1,3.4,2.6l3,11.3c0.8,3,4.7,3.6,6.4,1.1l9-13.5C56.7,13.2,57.8,12.6,59,12.6z"/>
			<path class="st1" d="M58.8,12.6h14.7c2.9,0,4.6,3.3,2.8,5.7L48.5,55.5c-0.3,0.4-0.5,0.9-0.6,1.4l-4.6,21.6
				c-0.3,1.6-1.8,2.8-3.5,2.8h-13c-2.2,0-3.9-2.1-3.5-4.3l4.5-21.2c0.1-0.6,0.1-1.3-0.1-1.9L15.3,17.3c-0.8-2.3,0.9-4.7,3.3-4.7
				h15.3c1.6,0,3,1.1,3.4,2.6l3,11.5c0.8,2.9,4.7,3.6,6.4,1.1l9.1-13.6C56.5,13.2,57.6,12.6,58.8,12.6z"/>
			<path class="st1" d="M58.6,12.6h14.6c2.9,0,4.6,3.3,2.8,5.6L48.2,55.4c-0.3,0.4-0.5,0.9-0.6,1.4L43,78.3
				c-0.3,1.6-1.8,2.8-3.4,2.8H26.7c-2.2,0-3.9-2.1-3.4-4.3l4.5-21.2c0.1-0.6,0.1-1.3-0.1-1.9L15.2,17.3c-0.8-2.3,0.9-4.7,3.3-4.7
				h15.1c1.6,0,3,1.1,3.4,2.6l3.1,11.6c0.8,2.9,4.6,3.6,6.3,1.1l9.2-13.8C56.3,13.2,57.4,12.6,58.6,12.6z"/>
			<path class="st1" d="M58.4,12.7h14.4c2.9,0,4.5,3.3,2.8,5.6l-27.7,37c-0.3,0.4-0.5,0.9-0.6,1.4l-4.5,21.5
				C42.4,79.8,41,81,39.3,81H26.6c-2.2,0-3.9-2.1-3.4-4.2l4.5-21.1c0.1-0.6,0.1-1.3-0.1-1.9L15.1,17.3c-0.8-2.3,0.9-4.6,3.3-4.6h15
				c1.6,0,3,1.1,3.4,2.6l3.1,11.8c0.8,2.9,4.6,3.6,6.3,1.1l9.3-13.9C56.2,13.2,57.3,12.7,58.4,12.7z"/>
			<path class="st1" d="M58.3,12.7h14.2c2.9,0,4.5,3.3,2.8,5.6L47.6,55.2c-0.3,0.4-0.5,0.9-0.6,1.4l-4.5,21.5
				c-0.3,1.6-1.8,2.8-3.4,2.8H26.5c-2.2,0-3.9-2-3.4-4.2l4.5-21.1c0.1-0.6,0.1-1.3-0.1-1.8L15,17.3c-0.8-2.3,0.9-4.6,3.3-4.6h14.9
				c1.6,0,3,1.1,3.4,2.6l3.1,11.9c0.8,2.9,4.6,3.6,6.3,1.1l9.4-14.1C56,13.2,57.1,12.7,58.3,12.7z"/>
			<path class="st1" d="M58.1,12.7h14.1c2.9,0,4.5,3.3,2.8,5.6L47.3,55.1c-0.3,0.4-0.5,0.9-0.6,1.4l-4.5,21.5
				c-0.3,1.6-1.8,2.8-3.4,2.8H26.3c-2.2,0-3.9-2-3.4-4.2l4.4-21c0.1-0.6,0.1-1.2-0.1-1.8L14.9,17.3c-0.8-2.3,0.9-4.6,3.3-4.6h14.7
				c1.6,0,3,1.1,3.4,2.6l3.2,12.1c0.8,2.9,4.6,3.5,6.3,1l9.5-14.2C55.8,13.2,56.9,12.7,58.1,12.7z"/>
			<path class="st1" d="M57.9,12.7h13.9c2.9,0,4.5,3.3,2.8,5.5L47.1,55c-0.3,0.4-0.5,0.9-0.6,1.4l-4.5,21.5
				c-0.3,1.6-1.8,2.7-3.4,2.7H26.2c-2.2,0-3.8-2-3.4-4.2l4.4-21c0.1-0.6,0.1-1.2-0.1-1.8L14.8,17.2C14,15,15.7,12.7,18,12.7h14.6
				c1.6,0,2.9,1.1,3.3,2.6l3.2,12.3c0.8,2.9,4.6,3.5,6.2,1L55,14.2C55.7,13.2,56.8,12.7,57.9,12.7z"/>
			<path class="st1" d="M57.7,12.7h13.8c2.8,0,4.5,3.2,2.8,5.5L46.8,54.9c-0.3,0.4-0.5,0.9-0.6,1.4l-4.5,21.4
				c-0.3,1.6-1.7,2.7-3.4,2.7H26.1c-2.2,0-3.8-2-3.4-4.2l4.4-20.9c0.1-0.6,0.1-1.2-0.1-1.8L14.6,17.2c-0.8-2.2,0.9-4.6,3.3-4.6h14.5
				c1.6,0,2.9,1.1,3.3,2.6L39,27.6c0.8,2.9,4.5,3.5,6.2,1l9.7-14.5C55.5,13.2,56.6,12.7,57.7,12.7z"/>
			<path class="st1" d="M57.6,12.7h13.6c2.8,0,4.4,3.2,2.7,5.5L46.5,54.8c-0.3,0.4-0.5,0.9-0.6,1.3l-4.5,21.4
				c-0.3,1.6-1.7,2.7-3.4,2.7H25.9c-2.2,0-3.8-2-3.4-4.1L27,55.2c0.1-0.6,0.1-1.2-0.1-1.8L14.5,17.2c-0.8-2.2,0.9-4.5,3.2-4.5h14.3
				c1.6,0,2.9,1.1,3.3,2.6l3.3,12.6c0.8,2.9,4.5,3.5,6.2,1l9.8-14.6C55.3,13.2,56.4,12.7,57.6,12.7z"/>
			<path class="st1" d="M57.4,12.7h13.4c2.8,0,4.4,3.2,2.7,5.5L46.2,54.6c-0.3,0.4-0.5,0.9-0.6,1.3l-4.5,21.4
				c-0.3,1.6-1.7,2.7-3.3,2.7H25.8c-2.2,0-3.8-2-3.3-4.1l4.4-20.8c0.1-0.6,0.1-1.2-0.1-1.8L14.4,17.2c-0.8-2.2,0.9-4.5,3.2-4.5h14.2
				c1.6,0,2.9,1,3.3,2.5l3.3,12.7c0.7,2.8,4.5,3.5,6.1,1l9.9-14.8C55.2,13.2,56.2,12.7,57.4,12.7z"/>
			<path class="st1" d="M57.2,12.7h13.3c2.8,0,4.4,3.2,2.7,5.4L45.9,54.5c-0.3,0.4-0.5,0.9-0.6,1.3l-4.5,21.3
				c-0.3,1.6-1.7,2.7-3.3,2.7H25.7c-2.2,0-3.8-2-3.3-4.1L26.7,55c0.1-0.6,0.1-1.2-0.1-1.8l-12.3-36c-0.8-2.2,0.9-4.5,3.2-4.5h14
				c1.5,0,2.9,1,3.3,2.5l3.4,12.9c0.7,2.8,4.5,3.5,6.1,1l10-14.9C55,13.2,56.1,12.7,57.2,12.7z"/>
			<path class="st1" d="M57,12.7h13.1c2.8,0,4.4,3.2,2.7,5.4L45.6,54.4c-0.3,0.4-0.5,0.8-0.6,1.3l-4.5,21.3
				c-0.3,1.6-1.7,2.7-3.3,2.7H25.5c-2.2,0-3.8-2-3.3-4.1l4.4-20.7c0.1-0.6,0.1-1.2-0.1-1.8l-12.3-36c-0.7-2.2,0.9-4.5,3.2-4.5h13.9
				c1.5,0,2.9,1,3.3,2.5l3.4,13c0.7,2.8,4.5,3.4,6.1,1l10.1-15.1C54.8,13.2,55.9,12.7,57,12.7z"/>
			<path class="st1" d="M56.9,12.7h13c2.8,0,4.4,3.2,2.7,5.4L45.4,54.3c-0.3,0.4-0.5,0.8-0.6,1.3l-4.5,21.3
				c-0.3,1.6-1.7,2.7-3.3,2.7H25.4c-2.1,0-3.7-2-3.3-4.1l4.4-20.7c0.1-0.6,0.1-1.2-0.1-1.8L14.1,17.1c-0.7-2.2,0.9-4.5,3.2-4.5h13.8
				c1.5,0,2.9,1,3.3,2.5l3.5,13.2c0.7,2.8,4.4,3.4,6.1,1l10.2-15.2C54.7,13.2,55.7,12.7,56.9,12.7z"/>
			<path class="st1" d="M56.7,12.7h12.8c2.8,0,4.3,3.2,2.7,5.4L45.1,54.2c-0.3,0.4-0.5,0.8-0.6,1.3L40,76.8
				c-0.3,1.6-1.7,2.7-3.3,2.7H25.3c-2.1,0-3.7-2-3.3-4l4.4-20.6c0.1-0.6,0.1-1.2-0.1-1.8L14,17.1c-0.7-2.2,0.9-4.4,3.2-4.4h13.6
				c1.5,0,2.9,1,3.2,2.5l3.5,13.3c0.7,2.8,4.4,3.4,6,1l10.3-15.4C54.5,13.2,55.6,12.7,56.7,12.7z"/>
			<path class="st1" d="M56.5,12.7h12.6c2.8,0,4.3,3.1,2.7,5.3l-27,36.1c-0.3,0.4-0.5,0.8-0.6,1.3l-4.5,21.2
				c-0.3,1.5-1.7,2.6-3.3,2.6H25.2c-2.1,0-3.7-2-3.3-4l4.3-20.6c0.1-0.6,0.1-1.2-0.1-1.8L13.9,17.1c-0.7-2.2,0.9-4.4,3.2-4.4h13.5
				c1.5,0,2.8,1,3.2,2.5l3.6,13.5c0.7,2.8,4.4,3.4,6,1l10.4-15.5C54.4,13.2,55.4,12.7,56.5,12.7z"/>
			<path class="st1" d="M56.3,12.7h12.5c2.7,0,4.3,3.1,2.7,5.3l-27,36c-0.3,0.4-0.5,0.8-0.6,1.3l-4.5,21.2c-0.3,1.5-1.7,2.6-3.3,2.6
				H25c-2.1,0-3.7-1.9-3.3-4l4.3-20.5c0.1-0.6,0.1-1.2-0.1-1.8L13.8,17.1c-0.7-2.2,0.9-4.4,3.1-4.4h13.4c1.5,0,2.8,1,3.2,2.5
				l3.6,13.6c0.7,2.8,4.4,3.4,6,1l10.5-15.6C54.2,13.2,55.2,12.7,56.3,12.7z"/>
			<path class="st1" d="M56.2,12.7h12.3c2.7,0,4.3,3.1,2.6,5.3L44.2,53.9c-0.3,0.4-0.5,0.8-0.6,1.3l-4.5,21.2
				c-0.3,1.5-1.7,2.6-3.2,2.6h-11c-2.1,0-3.7-1.9-3.2-4L26,54.5c0.1-0.6,0.1-1.2-0.1-1.8L13.7,17.1c-0.7-2.1,0.9-4.4,3.1-4.4h13.2
				c1.5,0,2.8,1,3.2,2.5L36.9,29c0.7,2.8,4.4,3.4,5.9,1l10.6-15.8C54,13.2,55.1,12.7,56.2,12.7z"/>
			<path class="st1" d="M56,12.7h12.2c2.7,0,4.3,3.1,2.6,5.3L43.9,53.8c-0.3,0.4-0.5,0.8-0.6,1.3l-4.5,21.1
				c-0.3,1.5-1.7,2.6-3.2,2.6H24.8c-2.1,0-3.7-1.9-3.2-4l4.3-20.4c0.1-0.6,0.1-1.2-0.1-1.7L13.6,17.1c-0.7-2.1,0.9-4.4,3.1-4.4h13.1
				c1.5,0,2.8,1,3.2,2.5l3.7,13.9c0.7,2.7,4.3,3.4,5.9,1l10.7-15.9C53.9,13.2,54.9,12.7,56,12.7z"/>
			<path class="st1" d="M55.8,12.7h12c2.7,0,4.2,3.1,2.6,5.2L43.7,53.7c-0.3,0.4-0.5,0.8-0.6,1.3l-4.5,21.1
				c-0.3,1.5-1.7,2.6-3.2,2.6H24.6c-2.1,0-3.6-1.9-3.2-4l4.3-20.4c0.1-0.6,0.1-1.2-0.1-1.7L13.5,17c-0.7-2.1,0.9-4.3,3.1-4.3h13
				c1.5,0,2.8,1,3.2,2.4l3.7,14.1c0.7,2.7,4.3,3.3,5.9,1l10.8-16.1C53.7,13.2,54.7,12.7,55.8,12.7z"/>
			<path class="st1" d="M55.6,12.7h11.8c2.7,0,4.2,3.1,2.6,5.2L43.4,53.6c-0.3,0.4-0.5,0.8-0.6,1.3l-4.4,21.1
				c-0.3,1.5-1.7,2.6-3.2,2.6H24.5c-2.1,0-3.6-1.9-3.2-3.9l4.3-20.3c0.1-0.6,0.1-1.2-0.1-1.7L13.4,17c-0.7-2.1,0.9-4.3,3.1-4.3h12.8
				c1.5,0,2.8,1,3.2,2.4l3.8,14.3c0.7,2.7,4.3,3.3,5.9,1l10.9-16.2C53.5,13.2,54.5,12.7,55.6,12.7z"/>
			<path class="st1" d="M55.5,12.7h11.7c2.7,0,4.2,3.1,2.6,5.2L43.1,53.5c-0.3,0.4-0.5,0.8-0.6,1.3l-4.4,21
				c-0.3,1.5-1.6,2.6-3.2,2.6H24.4c-2.1,0-3.6-1.9-3.2-3.9l4.3-20.3c0.1-0.6,0.1-1.2-0.1-1.7L13.3,17c-0.7-2.1,0.8-4.3,3.1-4.3H29
				c1.5,0,2.8,1,3.1,2.4L36,29.5c0.7,2.7,4.3,3.3,5.8,1l11-16.4C53.4,13.2,54.4,12.7,55.5,12.7z"/>
			<path class="st1" d="M55.3,12.7h11.5c2.7,0,4.2,3,2.6,5.2L42.8,53.4c-0.3,0.4-0.5,0.8-0.6,1.3l-4.4,21c-0.3,1.5-1.6,2.6-3.2,2.6
				H24.2c-2.1,0-3.6-1.9-3.2-3.9l4.3-20.2c0.1-0.6,0.1-1.2-0.1-1.7L13.2,17c-0.7-2.1,0.8-4.3,3.1-4.3h12.5c1.5,0,2.8,1,3.1,2.4
				l3.8,14.6c0.7,2.7,4.3,3.3,5.8,1l11.1-16.5C53.2,13.2,54.2,12.7,55.3,12.7z"/>
			<path class="st1" d="M55.1,12.7h11.4c2.6,0,4.2,3,2.6,5.1L42.5,53.3c-0.3,0.4-0.5,0.8-0.6,1.3l-4.4,21c-0.3,1.5-1.6,2.6-3.1,2.6
				H24.1c-2,0-3.6-1.9-3.1-3.9L25.2,54c0.1-0.6,0.1-1.2-0.1-1.7L13.1,17c-0.7-2.1,0.8-4.3,3-4.3h12.4c1.5,0,2.7,1,3.1,2.4l3.9,14.7
				c0.7,2.7,4.2,3.3,5.8,1l11.2-16.7C53,13.2,54,12.7,55.1,12.7z"/>
			<path class="st1" d="M54.9,12.7h11.2c2.6,0,4.1,3,2.6,5.1L42.2,53.2c-0.3,0.4-0.5,0.8-0.6,1.3l-4.4,20.9
				c-0.3,1.5-1.6,2.5-3.1,2.5H24c-2,0-3.6-1.9-3.1-3.9l4.3-20.1c0.1-0.6,0.1-1.2-0.1-1.7L13,17c-0.7-2.1,0.8-4.2,3-4.2h12.3
				c1.5,0,2.7,1,3.1,2.4L35.3,30c0.7,2.7,4.2,3.3,5.8,1l11.3-16.8C52.9,13.2,53.9,12.7,54.9,12.7z"/>
			<path class="st1" d="M54.8,12.7h11c2.6,0,4.1,3,2.6,5.1L42,53.1c-0.3,0.4-0.5,0.8-0.6,1.3L37,75.2c-0.3,1.5-1.6,2.5-3.1,2.5h-10
				c-2,0-3.5-1.9-3.1-3.8L25,53.8c0.1-0.6,0.1-1.1-0.1-1.7l-12-35.2c-0.7-2.1,0.8-4.2,3-4.2H28c1.4,0,2.7,1,3.1,2.4l4,15
				c0.7,2.7,4.2,3.2,5.7,1l11.4-17C52.7,13.3,53.7,12.7,54.8,12.7z"/>
			<path class="st1" d="M54.6,12.7h10.9c2.6,0,4.1,3,2.5,5.1L41.7,53c-0.3,0.4-0.5,0.8-0.6,1.2l-4.4,20.9c-0.3,1.5-1.6,2.5-3.1,2.5
				h-9.9c-2,0-3.5-1.9-3.1-3.8l4.2-20c0.1-0.6,0.1-1.1-0.1-1.7l-12-35.2c-0.7-2.1,0.8-4.2,3-4.2h12c1.4,0,2.7,1,3.1,2.4l4,15.2
				c0.7,2.6,4.2,3.2,5.7,1l11.5-17.1C52.5,13.3,53.5,12.7,54.6,12.7z"/>
			<path class="st1" d="M54.4,12.7h10.7c2.6,0,4.1,3,2.5,5L41.4,52.9c-0.3,0.4-0.5,0.8-0.6,1.2l-4.4,20.9c-0.3,1.5-1.6,2.5-3.1,2.5
				h-9.8c-2,0-3.5-1.8-3.1-3.8l4.2-20c0.1-0.6,0.1-1.1-0.1-1.7l-12-35.1c-0.7-2,0.8-4.2,3-4.2h11.9c1.4,0,2.7,1,3.1,2.4l4,15.3
				c0.7,2.6,4.2,3.2,5.7,1l11.5-17.2C52.4,13.3,53.4,12.7,54.4,12.7z"/>
			<path class="st1" d="M54.2,12.7h10.6c2.6,0,4.1,3,2.5,5l-26.2,35c-0.3,0.4-0.5,0.8-0.6,1.2l-4.4,20.8c-0.3,1.5-1.6,2.5-3.1,2.5
				h-9.6c-2,0-3.5-1.8-3.1-3.8l4.2-19.9c0.1-0.6,0.1-1.1-0.1-1.7l-12-35c-0.7-2,0.8-4.2,3-4.2h11.7c1.4,0,2.7,1,3,2.3l4.1,15.5
				c0.7,2.6,4.1,3.2,5.6,0.9l11.6-17.4C52.2,13.3,53.2,12.7,54.2,12.7z"/>
			<path class="st1" d="M54.1,12.7h10.4c2.6,0,4,2.9,2.5,5L40.8,52.6c-0.3,0.4-0.5,0.8-0.6,1.2l-4.4,20.8c-0.3,1.4-1.6,2.5-3.1,2.5
				h-9.5c-2,0-3.5-1.8-3.1-3.8l4.2-19.9c0.1-0.6,0.1-1.1-0.1-1.7l-11.9-35c-0.7-2,0.8-4.1,3-4.1H27c1.4,0,2.7,1,3,2.3l4.1,15.6
				c0.7,2.6,4.1,3.2,5.6,0.9l11.7-17.5C52,13.3,53,12.7,54.1,12.7z"/>
			<path class="st1" d="M53.9,12.7h10.2c2.6,0,4,2.9,2.5,5L40.5,52.5c-0.3,0.4-0.5,0.8-0.6,1.2l-4.4,20.8C35.3,76,34,77,32.6,77
				h-9.4c-2,0-3.5-1.8-3-3.8l4.2-19.8c0.1-0.5,0.1-1.1-0.1-1.6L12.3,16.9c-0.7-2,0.8-4.1,2.9-4.1h11.4c1.4,0,2.6,1,3,2.3l4.2,15.8
				c0.7,2.6,4.1,3.2,5.6,0.9l11.8-17.7C51.9,13.3,52.8,12.7,53.9,12.7z"/>
			<path class="st1" d="M53.7,12.7h10.1c2.5,0,4,2.9,2.5,4.9l-26,34.7c-0.3,0.4-0.5,0.8-0.6,1.2l-4.4,20.7c-0.3,1.4-1.6,2.5-3,2.5
				h-9.2c-2,0-3.4-1.8-3-3.7l4.2-19.8c0.1-0.5,0.1-1.1-0.1-1.6L12.2,16.8c-0.7-2,0.8-4.1,2.9-4.1h11.3c1.4,0,2.6,0.9,3,2.3l4.2,16
				c0.7,2.6,4.1,3.1,5.6,0.9l11.9-17.8C51.7,13.3,52.7,12.7,53.7,12.7z"/>
			<path class="st1" d="M53.5,12.7h9.9c2.5,0,4,2.9,2.5,4.9L40,52.3c-0.3,0.4-0.5,0.8-0.5,1.2L35,74.2c-0.3,1.4-1.6,2.4-3,2.4h-9.1
				c-2,0-3.4-1.8-3-3.7l4.2-19.7c0.1-0.5,0.1-1.1-0.1-1.6L12.1,16.8c-0.7-2,0.8-4.1,2.9-4.1h11.2c1.4,0,2.6,0.9,3,2.3l4.2,16.1
				c0.7,2.6,4.1,3.1,5.5,0.9l12-18C51.5,13.3,52.5,12.7,53.5,12.7z"/>
			<path class="st1" d="M53.4,12.7h9.8c2.5,0,4,2.9,2.5,4.9L39.7,52.2c-0.3,0.4-0.5,0.8-0.5,1.2l-4.4,20.7c-0.3,1.4-1.5,2.4-3,2.4
				h-9c-1.9,0-3.4-1.8-3-3.7L24,53.2c0.1-0.5,0.1-1.1-0.1-1.6L12,16.8c-0.7-2,0.8-4.1,2.9-4.1h11c1.4,0,2.6,0.9,3,2.3l4.3,16.3
				c0.7,2.6,4,3.1,5.5,0.9l12.1-18.1C51.4,13.3,52.3,12.7,53.4,12.7z"/>
			<path class="st1" d="M53.2,12.7h9.6c2.5,0,3.9,2.9,2.4,4.9L39.4,52.1c-0.3,0.4-0.5,0.8-0.5,1.2L34.5,74c-0.3,1.4-1.5,2.4-3,2.4
				h-8.8c-1.9,0-3.4-1.8-3-3.7l4.1-19.6c0.1-0.5,0.1-1.1-0.1-1.6L11.9,16.8c-0.7-2,0.8-4,2.9-4h10.9c1.4,0,2.6,0.9,2.9,2.3l4.3,16.4
				c0.7,2.5,4,3.1,5.5,0.9l12.2-18.3C51.2,13.3,52.2,12.7,53.2,12.7z"/>
			<path class="st1" d="M53,12.8h9.4c2.5,0,3.9,2.9,2.4,4.9L39.1,52c-0.3,0.4-0.4,0.8-0.5,1.2l-4.4,20.6c-0.3,1.4-1.5,2.4-3,2.4
				h-8.7c-1.9,0-3.4-1.8-3-3.7L23.7,53c0.1-0.5,0.1-1.1-0.1-1.6L11.8,16.8c-0.7-2,0.8-4,2.9-4h10.8c1.4,0,2.6,0.9,2.9,2.3l4.4,16.6
				c0.7,2.5,4,3.1,5.5,0.9l12.3-18.4C51.1,13.3,52,12.8,53,12.8z"/>
			<path class="st1" d="M52.8,12.8h9.3c2.5,0,3.9,2.8,2.4,4.8L38.8,51.9c-0.3,0.4-0.4,0.8-0.5,1.2l-4.3,20.6c-0.3,1.4-1.5,2.4-3,2.4
				h-8.6c-1.9,0-3.3-1.8-3-3.6l4.1-19.5c0.1-0.5,0.1-1.1-0.1-1.6L11.7,16.7c-0.7-2,0.8-4,2.9-4h10.6c1.4,0,2.6,0.9,2.9,2.2l4.4,16.7
				c0.7,2.5,4,3.1,5.4,0.9l12.4-18.5C50.9,13.3,51.8,12.8,52.8,12.8z"/>
			<path class="st1" d="M52.7,12.8h9.1c2.5,0,3.9,2.8,2.4,4.8L38.5,51.8c-0.3,0.3-0.4,0.8-0.5,1.2l-4.3,20.6
				c-0.3,1.4-1.5,2.4-2.9,2.4h-8.5c-1.9,0-3.3-1.8-2.9-3.6l4.1-19.5c0.1-0.5,0.1-1.1-0.1-1.6L11.6,16.7c-0.7-1.9,0.8-4,2.8-4h10.5
				c1.4,0,2.6,0.9,2.9,2.2l4.4,16.9c0.7,2.5,4,3.1,5.4,0.9l12.5-18.7C50.7,13.3,51.7,12.8,52.7,12.8z"/>
			<path class="st1" d="M52.5,12.8h9c2.5,0,3.9,2.8,2.4,4.8L38.3,51.7c-0.3,0.3-0.4,0.7-0.5,1.2l-4.3,20.5c-0.3,1.4-1.5,2.4-2.9,2.4
				h-8.3c-1.9,0-3.3-1.7-2.9-3.6l4.1-19.4c0.1-0.5,0.1-1.1-0.1-1.6L11.5,16.7c-0.7-1.9,0.8-4,2.8-4h10.4c1.4,0,2.5,0.9,2.9,2.2
				L32,32c0.7,2.5,3.9,3,5.4,0.9L50,14.1C50.6,13.3,51.5,12.8,52.5,12.8z"/>
			<path class="st1" d="M52.3,12.8h8.8c2.4,0,3.8,2.8,2.4,4.8L38,51.6c-0.3,0.3-0.4,0.7-0.5,1.2l-4.3,20.5c-0.3,1.4-1.5,2.4-2.9,2.4
				H22c-1.9,0-3.3-1.7-2.9-3.6l4.1-19.4c0.1-0.5,0.1-1.1-0.1-1.6L11.4,16.7c-0.7-1.9,0.8-3.9,2.8-3.9h10.2c1.4,0,2.5,0.9,2.9,2.2
				l4.5,17.2c0.7,2.5,3.9,3,5.3,0.9l12.7-19C50.4,13.3,51.3,12.8,52.3,12.8z"/>
			<path class="st1" d="M52.1,12.8h8.6c2.4,0,3.8,2.8,2.4,4.7l-25.5,34c-0.3,0.3-0.4,0.7-0.5,1.2l-4.3,20.5
				c-0.3,1.4-1.5,2.3-2.9,2.3h-8.1c-1.9,0-3.3-1.7-2.9-3.6l4.1-19.3c0.1-0.5,0.1-1.1-0.1-1.6L11.3,16.7c-0.7-1.9,0.8-3.9,2.8-3.9
				h10.1c1.3,0,2.5,0.9,2.9,2.2l4.6,17.3c0.6,2.5,3.9,3,5.3,0.9l12.8-19.1C50.2,13.3,51.1,12.8,52.1,12.8z"/>
			<path class="st1" d="M52,12.8h8.5c2.4,0,3.8,2.8,2.4,4.7L37.4,51.4c-0.3,0.3-0.4,0.7-0.5,1.2L32.6,73c-0.3,1.4-1.5,2.3-2.9,2.3
				h-7.9c-1.9,0-3.3-1.7-2.9-3.5l4.1-19.3c0.1-0.5,0.1-1.1-0.1-1.6L11.1,16.7c-0.7-1.9,0.8-3.9,2.8-3.9h9.9c1.3,0,2.5,0.9,2.8,2.2
				l4.6,17.5c0.6,2.4,3.9,3,5.3,0.9l12.9-19.3C50.1,13.3,51,12.8,52,12.8z"/>
			<path class="st1" d="M51.8,12.8h8.3c2.4,0,3.8,2.8,2.3,4.7L37.1,51.3c-0.3,0.3-0.4,0.7-0.5,1.1l-4.3,20.4
				c-0.3,1.4-1.5,2.3-2.9,2.3h-7.8c-1.9,0-3.2-1.7-2.9-3.5l4.1-19.2c0.1-0.5,0.1-1.1-0.1-1.5L11,16.6c-0.6-1.9,0.8-3.9,2.8-3.9h9.8
				c1.3,0,2.5,0.9,2.8,2.2l4.6,17.6c0.6,2.4,3.9,3,5.3,0.9l13-19.4C49.9,13.3,50.8,12.8,51.8,12.8z"/>
			<path class="st1" d="M51.6,12.8h8.2c2.4,0,3.8,2.7,2.3,4.7L36.8,51.2c-0.3,0.3-0.4,0.7-0.5,1.1L32,72.7C31.7,74,30.6,75,29.2,75
				h-7.7c-1.8,0-3.2-1.7-2.8-3.5l4-19.2c0.1-0.5,0.1-1-0.1-1.5L10.9,16.6c-0.6-1.9,0.8-3.9,2.8-3.9h9.7c1.3,0,2.5,0.9,2.8,2.2
				l4.7,17.8c0.6,2.4,3.8,3,5.2,0.9l13.1-19.6C49.7,13.3,50.6,12.8,51.6,12.8z"/>
			<path class="st1" d="M51.4,12.8h8c2.4,0,3.7,2.7,2.3,4.6L36.6,51.1c-0.3,0.3-0.4,0.7-0.5,1.1l-4.3,20.3c-0.3,1.3-1.5,2.3-2.8,2.3
				h-7.6c-1.8,0-3.2-1.7-2.8-3.5l4-19.1c0.1-0.5,0.1-1-0.1-1.5L10.8,16.6c-0.6-1.9,0.8-3.8,2.7-3.8h9.5c1.3,0,2.5,0.9,2.8,2.2
				l4.7,18c0.6,2.4,3.8,2.9,5.2,0.9L49,14.1C49.6,13.3,50.5,12.8,51.4,12.8z"/>
			<path class="st1" d="M51.3,12.8h7.8c2.4,0,3.7,2.7,2.3,4.6L36.3,51c-0.3,0.3-0.4,0.7-0.5,1.1l-4.3,20.3c-0.3,1.3-1.5,2.3-2.8,2.3
				h-7.4c-1.8,0-3.2-1.7-2.8-3.5l4-19.1c0.1-0.5,0.1-1-0.1-1.5l-11.6-34c-0.6-1.9,0.8-3.8,2.7-3.8h9.4c1.3,0,2.5,0.9,2.8,2.1
				L30.4,33c0.6,2.4,3.8,2.9,5.2,0.9l13.3-19.8C49.4,13.3,50.3,12.8,51.3,12.8z"/>
			<path class="st1" d="M51.1,12.8h7.7c2.4,0,3.7,2.7,2.3,4.6L36,50.8c-0.2,0.3-0.4,0.7-0.5,1.1l-4.3,20.3c-0.3,1.3-1.4,2.3-2.8,2.3
				h-7.3c-1.8,0-3.2-1.7-2.8-3.5l4-19c0.1-0.5,0.1-1-0.1-1.5l-11.6-34c-0.6-1.9,0.7-3.8,2.7-3.8h9.3c1.3,0,2.4,0.9,2.8,2.1l4.8,18.3
				c0.6,2.4,3.8,2.9,5.2,0.9l13.4-20C49.2,13.3,50.1,12.8,51.1,12.8z"/>
			<path class="st1" d="M50.9,12.8h7.5c2.3,0,3.7,2.7,2.3,4.6l-25,33.4c-0.2,0.3-0.4,0.7-0.5,1.1l-4.3,20.3
				c-0.3,1.3-1.4,2.3-2.8,2.3H21c-1.8,0-3.2-1.7-2.8-3.4l4-19c0.1-0.5,0.1-1-0.1-1.5L10.5,16.6c-0.6-1.8,0.7-3.8,2.7-3.8h9.1
				c1.3,0,2.4,0.9,2.8,2.1l4.8,18.4c0.6,2.4,3.8,2.9,5.1,0.9l13.5-20.1C49.1,13.3,50,12.8,50.9,12.8z"/>
			<path class="st1" d="M50.7,12.8h7.4c2.3,0,3.7,2.7,2.3,4.5L35.4,50.6c-0.2,0.3-0.4,0.7-0.5,1.1L30.6,72c-0.3,1.3-1.4,2.2-2.8,2.2
				h-7c-1.8,0-3.1-1.7-2.8-3.4l4-18.9c0.1-0.5,0.1-1-0.1-1.5L10.4,16.5c-0.6-1.8,0.7-3.8,2.7-3.8h9c1.3,0,2.4,0.9,2.7,2.1l4.9,18.6
				c0.6,2.4,3.7,2.9,5.1,0.9l13.6-20.3C48.9,13.3,49.8,12.8,50.7,12.8z"/>
		</g>
	</g>
	<path class="st2" d="M53.2,14.7h6.7c2.5,0,4,2.9,2.5,4.9L37.8,52.5c-0.3,0.4-0.5,0.8-0.6,1.2l-4.2,20c-0.3,1.4-1.6,2.5-3,2.5h-6.5
		c-2,0-3.4-1.8-3-3.7l3.9-18.5c0.1-0.5,0.1-1.1-0.1-1.6L12.9,18.8c-0.7-2,0.8-4.1,2.9-4.1h8.4c1.4,0,2.6,0.9,3,2.3l4.7,17.8
		c0.7,2.6,4.1,3.1,5.6,0.9L50.6,16C51.2,15.2,52.2,14.7,53.2,14.7z"/>
	<text transform="matrix(1 0 0 1 45.8621 80.8587)" class="st1 st3 st4">Desing</text>
</g>
</svg>
