<?xml version="1.0" encoding="utf-8"?>
<!-- Generator: Adobe Illustrator 19.2.1, SVG Export Plug-In . SVG Version: 6.00 Build 0)  -->
<svg version="1.1" id="Layer_1" xmlns="http://www.w3.org/2000/svg" xmlns:xlink="http://www.w3.org/1999/xlink" x="0px" y="0px"
	 viewBox="0 0 10.7 10.9" style="enable-background:new 0 0 10.7 10.9;" xml:space="preserve">
<style type="text/css">
	.st0{fill:#0073B9;}
	.st1{fill:#FFFFFF;}
	.st2{fill:#0070B7;}
	.st3{font-family:'Helvetica-BoldOblique';}
	.st4{font-size:1.3066px;}
</style>
<g>
	<rect class="st0" width="10.8" height="10.9"/>
	<path class="st1" d="M8.8,1.5c-0.1,0-0.1,0-0.2,0l0,0l0,0l0,0l0,0l0,0H6.8l0,0l0,0l0,0l0,0l0,0H6.7l0,0l0,0l0,0l0,0l0,0l0,0l0,0
		l0,0l0,0l0,0l0,0l0,0l0,0l0,0l0,0l0,0l0,0l0,0l0,0l0,0l0,0l0,0l0,0l0,0l0,0l0,0l0,0H6.6l0,0l0,0l0,0l0,0l0,0l0,0l0,0l0,0l0,0l0,0
		l0,0c-0.1,0-0.8,0-1,0L4.7,2.8L4.4,1.7c0-0.2-0.2-0.3-0.4-0.3l0,0H3.9H3.8H3.6H3.1H1.5l0,0c-0.2,0-0.4,0.2-0.3,0.4l1.3,3.9
		c0,0.1,0,0.1,0,0.2c0,0-0.6,3.1-0.6,3.3C2,9.4,2.2,9.4,2.2,9.4s0.8,0,0.9,0h1.6c0.2,0,0.4-0.1,0.4-0.3l0.5-2.5c0-0.1,0-0.1,0.1-0.2
		L9,2.1C9.1,1.9,9,1.6,8.8,1.5z"/>
	<path class="st2" d="M6.1,1.7h0.8c0.3,0,0.5,0.3,0.3,0.6L4.3,6L4.2,6.1L3.8,8.4c0,0.2-0.2,0.3-0.3,0.3H2.7c-0.2,0-0.4-0.2-0.3-0.4
		l0.4-2.1c0-0.1,0-0.1,0-0.2L1.5,2.1C1.4,1.9,1.6,1.7,1.8,1.7h1C3,1.7,3.1,1.8,3.1,2l0.5,2c0.1,0.3,0.5,0.4,0.6,0.1l1.5-2.3
		C5.9,1.7,6,1.7,6.1,1.7z"/>
	<text transform="matrix(1 0 0 1 5.2527 9.2665)" class="st1 st3 st4">Desing</text>
</g>
</svg>
